<?xml version="1.0" standalone="no"?>
<!DOCTYPE svg PUBLIC "-//W3C//DTD SVG 20010904//EN"
 "http://www.w3.org/TR/2001/REC-SVG-20010904/DTD/svg10.dtd">
<svg version="1.0" xmlns="http://www.w3.org/2000/svg"
 width="76.000000pt" height="76.000000pt" viewBox="0 0 76.000000 76.000000"
 preserveAspectRatio="xMidYMid meet">
<metadata>
Created by potrace 1.14, written by Peter Selinger 2001-2017
</metadata>
<g transform="translate(0.000000,76.000000) scale(0.100000,-0.100000)"
fill="#000000" stroke="none">
<path d="M302 648 c-214 -349 -302 -496 -302 -510 0 -22 27 -43 100 -77 185
-88 432 -79 600 21 33 20 56 41 58 53 2 21 -357 616 -375 622 -6 2 -42 -47
-81 -109z m101 33 c9 -16 17 -31 17 -33 0 -2 -18 -3 -40 -3 -22 0 -40 1 -40 3
0 8 35 62 40 62 3 0 13 -13 23 -29z m68 -113 c14 -24 59 -97 99 -163 40 -66
79 -129 87 -141 12 -18 11 -23 -2 -34 -13 -11 -15 -10 -10 1 3 8 -34 77 -81
154 -123 200 -137 225 -127 225 4 0 20 -19 34 -42z"/>
</g>
</svg>
